<svg xmlns="http://www.w3.org/2000/svg" viewBox="0 0 112.19 141.78"><defs><style>.cls-1{fill:#000;}</style></defs><title>Asset 1</title><g id="Layer_2" data-name="Layer 2"><g id="Capa_1" data-name="Capa 1"><path class="cls-1" d="M103.26,133.22H22a12,12,0,1,1,0-24.07h81.29l-4.32,12Z"/><path class="cls-1" d="M109.78,141.78H20.59a20.6,20.6,0,0,1,0-41.19h89.19a2.41,2.41,0,0,1,0,4.82H20.59a15.78,15.78,0,1,0,0,31.56h89.19a2.41,2.41,0,1,1,0,4.81Z"/><path class="cls-1" d="M110.91,47l-.09.05L95,7.81h7.2a2.34,2.34,0,1,0,0-4.68h-44V2.34a2.34,2.34,0,0,0-4.68,0v.77h-44a2.34,2.34,0,1,0,0,4.67h7.5L1.28,47a2.39,2.39,0,0,0-.19.87,19.44,19.44,0,0,0,38.88,0,2.37,2.37,0,0,0-.18-.87L24,7.76H53.56v72.3c-11.15.84-19.88,7.62-19.88,15.83A2.33,2.33,0,0,0,36,98.22H75.77a2.33,2.33,0,0,0,2.34-2.33c0-8.21-8.72-15-19.87-15.83V7.76H88.09L72.4,47a2.37,2.37,0,0,0-.18.87,19.44,19.44,0,0,0,38.88,0A2.39,2.39,0,0,0,110.91,47ZM20.52,62.71A14.79,14.79,0,0,1,6,50.29H35A14.77,14.77,0,0,1,20.52,62.71ZM34.15,45.62H6.94L20.57,11.69ZM73,93.55H38.76c1.73-5,8.86-8.91,17.11-8.91S71.28,88.52,73,93.55ZM91.55,11.71l13.59,33.91H77.92Zm0,51v0A14.77,14.77,0,0,1,77.08,50.29h29A14.78,14.78,0,0,1,91.55,62.71Z"/></g></g></svg>